<svg xmlns="http://www.w3.org/2000/svg" aria-hidden="true" style="position:absolute;width:0;height:0;overflow:hidden">
    <defs>
        <symbol id="icon-flex" viewBox="0 0 32 32">
            <path
                d="M13.917 0h4.166c.511 0 .991 0 1.393.047.448.052.919.173 1.358.495s.7.74.891 1.157c.171.374.322.838.484 1.332l.578 1.768c.058.017.116.035.172.054 2.573.852 4.591 2.909 5.427 5.531.415 1.3.414 2.857.414 5.357v.517c0 2.501.001 4.057-.414 5.357-.836 2.623-2.854 4.679-5.427 5.531a4.907 4.907 0 0 1-.172.054l-.578 1.768c-.161.494-.313.958-.484 1.332-.19.416-.451.834-.891 1.156s-.91.443-1.358.495c-.402.047-.882.047-1.393.047h-4.166c-.511 0-.991 0-1.393-.047-.448-.052-.919-.172-1.358-.495s-.7-.74-.891-1.156c-.171-.374-.322-.838-.484-1.332L9.213 27.2a4.907 4.907 0 0 1-.172-.054c-2.573-.852-4.591-2.908-5.427-5.531-.414-1.3-.414-2.857-.414-5.358v-.517c0-2.501-.001-4.057.414-5.358.836-2.623 2.854-4.679 5.427-5.531.057-.019.114-.037.172-.054l.578-1.768c.162-.494.313-.958.484-1.332.19-.417.451-.834.891-1.157s.91-.443 1.358-.495c.402-.047.882-.047 1.393-.047zm-2.045 27.547.193.589c.186.568.295.896.4 1.127a1.066 1.066 0 0 0 .112.197l.002.001.002.001s.007.004.02.008c.028.009.086.025.198.038.248.029.588.031 1.176.031h4.052c.588 0 .927-.002 1.176-.031a.954.954 0 0 0 .218-.046l.002-.001.001-.001.004-.005.009-.012c.018-.024.05-.076.098-.18.105-.231.215-.559.4-1.127l.193-.589c-.7.023-1.496.023-2.425.023h-3.406c-.929 0-1.725 0-2.425-.023zm8.064-23.683.193.589c-.7-.023-1.496-.023-2.425-.022h-3.406c-.929 0-1.725 0-2.425.022l.193-.589c.186-.568.295-.896.4-1.127a1.066 1.066 0 0 1 .112-.197l.002-.001.002-.001s.007-.004.02-.008c.028-.009.086-.025.198-.038.248-.029.588-.031 1.176-.031h4.052c.588 0 .928.002 1.176.031a.954.954 0 0 1 .218.046l.002.001.002.001.014.017c.018.024.05.075.098.18.106.231.215.559.401 1.127zM16 10.196a1.22 1.22 0 0 1 1.208 1.231v3.692h2.415c.667 0 1.207.551 1.207 1.231s-.541 1.231-1.208 1.23H16a1.22 1.22 0 0 1-1.208-1.231v-4.923c0-.68.541-1.231 1.208-1.231z" />
        </symbol>
        <symbol id="icon-invest" viewBox="0 0 32 32">
            <path
                d="M20.512 1.6c2.02 0 3.648 0 4.928.172 1.329.179 2.449.561 3.338 1.45s1.271 2.008 1.45 3.338c.172 1.28.172 2.909.172 4.928v9.024c0 2.02 0 3.648-.172 4.928-.179 1.329-.561 2.449-1.45 3.338s-2.008 1.271-3.338 1.45c-1.28.172-2.908.172-4.928.172h-9.024c-2.02 0-3.648 0-4.928-.172-1.329-.179-2.449-.561-3.338-1.45s-1.271-2.008-1.45-3.338C1.6 24.16 1.6 22.532 1.6 20.512v-9.024c0-2.02 0-3.648.172-4.928.179-1.329.561-2.449 1.45-3.338S5.23 1.951 6.56 1.772C7.84 1.6 9.469 1.6 11.488 1.6h9.024zm6.055 9.511a1.201 1.201 0 0 0-1.934-1.421l-5.287 7.196c-.385.524-.642.872-.852 1.124s-.305.321-.339.342c-.41.248-.929.228-1.319-.05-.033-.023-.122-.1-.312-.367s-.42-.634-.763-1.186l-.02-.032c-.344-.552-.631-1.013-.885-1.368-.257-.36-.546-.711-.923-.972a3.601 3.601 0 0 0-4.096 0c-.377.261-.666.612-.923.972-.253.355-.541.816-.884 1.368l-2.649 4.249a1.199 1.199 0 1 0 2.037 1.269l2.629-4.217c.369-.592.617-.989.822-1.277.207-.29.302-.37.334-.391a1.2 1.2 0 0 1 1.365 0c.031.022.127.101.334.391.205.288.453.684.822 1.277l.02.032c.319.512.587.942.825 1.276.243.341.516.673.872.928a3.6 3.6 0 0 0 3.957.151c.374-.226.672-.536.94-.858.263-.315.563-.724.92-1.21l5.309-7.226z" />
        </symbol>
        <symbol id="icon-key" viewBox="0 0 32 32">
            <path
                d="M7.821 1.82c4.797-3.286 11.308-1.999 14.542 2.874 2.169 3.268 2.312 7.319.729 10.62-.061.128-.11.228-.15.315l-.016.035c.042.066.092.141.157.239l5.001 7.535c.247.37.513.769.634 1.24s.082.952.045 1.397l-.009.109-.254 3.16c-.029.365-.06.754-.131 1.075-.082.372-.256.85-.714 1.203s-.959.394-1.333.374c-.323-.017-.7-.092-1.054-.162l-2.395-.473a6.632 6.632 0 0 1-.721-.17c-.266-.085-.587-.231-.865-.531s-.4-.635-.468-.91a7.2 7.2 0 0 1-.122-.741l-.276-2.148a17.64 17.64 0 0 0-.031-.231 10.79 10.79 0 0 0-.212-.089l-1.305-.544a6.882 6.882 0 0 1-.63-.288c-.231-.127-.501-.318-.713-.637s-.284-.646-.314-.911c-.025-.222-.026-.477-.027-.701l-.007-1.262a20.2 20.2 0 0 0-.002-.276 17.21 17.21 0 0 0-.253-.099l-1.58-.609a5.242 5.242 0 0 0-.111-.042l-.012.001-.148.02a10.41 10.41 0 0 1-10.087-4.599C1.755 11.721 3.021 5.107 7.819 1.821zm3.57 5.38c-1.89 1.295-2.389 3.901-1.115 5.821s3.84 2.427 5.73 1.133c1.89-1.295 2.389-3.901 1.115-5.821s-3.84-2.427-5.73-1.133z" />
        </symbol>
        <symbol id="icon-partners" viewBox="0 0 32 32">
            <path
                d="M28.715 20.245C30.755 21.351 32 23.32 32 25.442v.478c0 .182 0 .344-.018.491-.154 1.249-1.266 2.236-2.675 2.373-.166.016-.349.016-.554.016H23.37c-.254 0-.38 0-.433-.072s-.059-.217.091-.418c1.812-2.432 1.139-6.824-.358-9.051-.147-.219-.18-.352-.125-.43s.187-.073.452-.063c1.781.069 4.139.623 5.718 1.479zM11.176 3.2c-3.25 0-6.148 2.289-6.148 5.409s2.897 5.409 6.148 5.409 6.148-2.289 6.148-5.409c0-3.12-2.897-5.409-6.148-5.409zM23.51 7.589c-2.73 0-5.205 1.927-5.205 4.6s2.475 4.6 5.205 4.6c2.729 0 5.205-1.927 5.205-4.6s-2.475-4.6-5.205-4.6zM18.245 17.1a13.793 13.793 0 0 0-14.138 0C1.556 18.628 0 21.346 0 24.276v.675c0 .264 0 .481.022.676.186 1.659 1.523 2.97 3.216 3.152.199.021.42.021.69.021h14.497c.269 0 .491 0 .69-.021 1.693-.182 3.03-1.492 3.216-3.152.022-.195.022-.412.022-.676v-.675c0-2.93-1.556-5.648-4.107-7.176z" />
        </symbol>
        <symbol id="icon-quality" viewBox="0 0 32 32">
            <path
                d="M5.694 4.726c.375-1.836 1.974-3.255 3.937-3.255h12.741c1.963 0 3.562 1.42 3.937 3.255H27.6c1.767 0 3.092 1.645 2.746 3.407l-.83 4.222a6.112 6.112 0 0 1-2.531 3.865l-2.188 1.499a6.08 6.08 0 0 1-3.459 4.759c-.291.135-.608.242-1.069.399l-.212.072-.19.064-2.666.904v3.911h3.6c.663 0 1.2.547 1.2 1.221s-.537 1.221-1.2 1.221h-9.6c-.663 0-1.2-.547-1.2-1.221s.537-1.221 1.2-1.221h3.6v-3.911l-3.068-1.04c-.461-.156-.778-.264-1.069-.399a6.08 6.08 0 0 1-3.459-4.759L5.017 16.22a6.112 6.112 0 0 1-2.531-3.865l-.83-4.222c-.347-1.763.979-3.407 2.746-3.407h1.291zm19.538 9.751.41-.281a3.666 3.666 0 0 0 1.519-2.319l.83-4.222a.406.406 0 0 0-.392-.487h-1.387l-.98 7.309zM5.789 7.168H4.402a.405.405 0 0 0-.392.487l.83 4.222c.186.946.732 1.78 1.519 2.319l.41.281-.98-7.309z" />
        </symbol>
        <symbol id="icon-simple" viewBox="0 0 32 32">
            <path
                d="M10.654 3.257c.749-2.395 4.573-2.014 5.989 0 1.252 1.781 1.108 4.291.735 6.448-.376 2.178 1.004 3.439 3.107 2.669 2.448-.896 5.436-1.828 7.387-1.134 2.246.798 2.999 3.165 2.246 7.983-1.497 9.58-5.989 11.177-11.977 11.177-5.564 0-7.511-1.512-9.238-2.975-.771-.654-1.242-1.606-1.242-2.608V14.288c0-.739.261-1.452.698-2.052.724-.996 1.817-2.656 2.296-4.189.412-1.318.219-2.153.046-2.903-.142-.613-.27-1.169-.046-1.887zM6.208 14.274V26.56a2.305 2.305 0 0 1-4.608 0V14.274a2.305 2.305 0 0 1 4.608 0z" />
        </symbol>
        <symbol id="icon-support" viewBox="0 0 32 32">
            <path
                d="M1.6 11.163c-.004 1.027.278 2.052.615 3.276l.049.177c2.033 7.397 7.349 12.145 10.544 14.433l.109.078c.973.698 1.776 1.274 3.083 1.273v-.033c1.307-.002 2.109-.581 3.081-1.283l.11-.079c3.189-2.297 8.501-7.056 10.54-14.422l.049-.176c.576-2.078.993-3.58.114-5.5-.881-1.922-2.605-2.712-5.021-3.819l-.883-.405a501.283 501.283 0 0 0-4.013-1.829l-.196-.088c-1.528-.687-2.595-1.167-3.779-1.167s-2.25.479-3.779 1.167l-.196.088a501.283 501.283 0 0 0-4.013 1.829l-.669.307c-1.289.591-2.367 1.086-3.201 1.634-.896.588-1.575 1.276-2.035 2.279-.368.801-.51 1.53-.508 2.259zm16.166 15.8c-.157.113-.296.213-.421.3V4.436c.408.161.927.391 1.635.709 1.368.614 2.565 1.164 3.994 1.82l.597.274c1.422.653 2.332 1.087 2.95 1.489.606.394.915.747 1.139 1.237.236.514.314.924.263 1.482-.053.575-.244 1.304-.564 2.46-1.817 6.562-6.596 10.898-9.594 13.058z" />
        </symbol>
        <symbol id="icon-tech" viewBox="0 0 32 32">
            <path
                d="M13.215 13.323a1.2 1.2 0 0 1 0 1.697l-1.883 1.883 3.766 3.766 1.883-1.883a1.2 1.2 0 1 1 1.697 1.697l-1.883 1.883.307.307a3.429 3.429 0 0 1 0 4.849 8.629 8.629 0 0 1-11.531.605l-1.916 1.916a1.2 1.2 0 1 1-1.697-1.697l1.916-1.916a8.63 8.63 0 0 1 .606-11.531 3.429 3.429 0 0 1 4.849 0l.307.307 1.883-1.883a1.2 1.2 0 0 1 1.697 0zM28.137 5.571l1.916-1.916a1.2 1.2 0 1 0-1.697-1.697L26.44 3.874a8.63 8.63 0 0 0-11.531.605 3.429 3.429 0 0 0 0 4.849l7.774 7.774a3.429 3.429 0 0 0 4.849 0 8.629 8.629 0 0 0 .605-11.531z" />
        </symbol>
        <symbol id="icon-bath" viewBox="0 0 32 32">
            <path
                d="M4.667 5.514a2.183 2.183 0 0 1 1.768-2.14 2.177 2.177 0 0 1 2.436 1.331l.192.477a5.454 5.454 0 0 0-1.84 2.365 5.572 5.572 0 0 0-.027 4.143.998.998 0 0 0 1.327.551L16.47 8.82a1 1 0 0 0 .536-1.284 5.286 5.286 0 0 0-2.842-2.95 5.129 5.129 0 0 0-3.288-.256l-.147-.367a4.18 4.18 0 0 0-8.062 1.552v9.153h-.333a.997.997 0 0 0-1 1 .997.997 0 0 0 1 1h.333v.473c0 .5 0 .793.021 1.12.189 2.983 1.8 5.736 4.136 7.536-.019.029-.036.06-.052.091l-1.333 2.667a.998.998 0 0 0 .452 1.334.998.998 0 0 0 1.338-.441l1.291-2.58a9.806 9.806 0 0 0 3.44 1.02c.327.033.525.04.864.053h.009c.987.037 1.952.06 2.835.06s1.848-.023 2.835-.06h.009c.339-.013.539-.02.864-.053a9.806 9.806 0 0 0 3.44-1.02l1.291 2.581a1.01 1.01 0 0 0 .578.501.997.997 0 0 0 1.313-1.019.985.985 0 0 0-.103-.376l-1.333-2.667a.912.912 0 0 0-.051-.091c2.335-1.8 3.947-4.555 4.136-7.536.02-.327.02-.62.02-1.12v-.051c0-.08 0-.164-.005-.24a2.27 2.27 0 0 0-.019-.183H29a.997.997 0 0 0 1-1 .997.997 0 0 0-1-1H4.667V5.514z" />
        </symbol>
        <symbol id="icon-bed" viewBox="0 0 32 32">
            <path
                d="M27 14.419A4.971 4.971 0 0 0 25 14H7a4.97 4.97 0 0 0-2 .418A5.013 5.013 0 0 0 2 19v7a.997.997 0 0 0 1 1 .997.997 0 0 0 1-1v-.5c.002-.132.055-.258.148-.352s.22-.147.352-.148h23c.132.002.258.055.352.148s.147.22.148.352v.5a.997.997 0 0 0 1 1 .997.997 0 0 0 1-1v-7a5.003 5.003 0 0 0-3-4.581zM23.5 5h-15A3.502 3.502 0 0 0 5 8.5V13c0 .039.009.077.026.112s.042.065.073.088a.254.254 0 0 0 .22.04A5.976 5.976 0 0 1 7 13h.264c.062 0 .121-.022.168-.063s.076-.098.082-.159A2.002 2.002 0 0 1 9.499 11h3.5a2.003 2.003 0 0 1 1.987 1.779c.007.061.036.118.082.159s.106.063.168.063h1.529c.062 0 .121-.022.168-.063s.076-.098.082-.159a1.997 1.997 0 0 1 1.984-1.778h3.5a2.003 2.003 0 0 1 1.987 1.779c.007.061.036.118.082.159s.106.063.168.063h.262c.569 0 1.135.081 1.681.241a.248.248 0 0 0 .319-.24v-4.5a3.503 3.503 0 0 0-3.5-3.5z" />
        </symbol>
        <symbol id="icon-chair" viewBox="0 0 32 32">
            <path
                d="M6.667 12.2V9.333c0-1.467 1.2-2.667 2.667-2.667h13.333c1.467 0 2.667 1.2 2.667 2.667v2.88c-1.547.547-2.667 2.013-2.667 3.747v2.707H9.334v-2.72c0-1.72-1.12-3.2-2.667-3.747zm20 1.133A2.675 2.675 0 0 0 24 16v4H8v-4a2.668 2.668 0 0 0-5.334 0v6.667c0 1.467 1.2 2.667 2.667 2.667v2.667H8v-2.667h16v2.667h2.667v-2.667c1.467 0 2.667-1.2 2.667-2.667V16c0-1.467-1.2-2.667-2.667-2.667z" />
        </symbol>
        <symbol id="icon-fire" viewBox="0 0 32 32">
            <path
                d="M21.712 20.433c0 2.91-2.557 5.269-5.712 5.269s-5.712-2.359-5.712-5.269c0-1.958 1.01-3.916 1.828-5.182.417-.644.625-.966 1.02-.997s.662.269 1.195.867a37.872 37.872 0 0 1 2.336 2.888c.371.51.556.765.792.771s.43-.231.816-.707l.764-.939c.254-.312.38-.468.591-.48s.338.111.591.357c.63.612 1.491 1.752 1.491 3.422z" />
            <path
                d="M12.226.001c-.711-.017-1.257.284-1.709.697-.384.351-.768.847-1.167 1.364l-.049.064C6.855 5.292 3.2 11.247 3.2 18.65c0 7.374 5.731 13.351 12.8 13.351s12.8-5.977 12.8-13.351c0-4.888-2.161-9.266-3.816-11.775l-.029-.043a5.315 5.315 0 0 0-.475-.648c-.217-.236-.603-.551-1.171-.526-.579.025-.941.388-1.132.637-.159.207-.307.478-.43.702l-1.193 2.179c-.109.199-.199.363-.28.504-.096-.131-.203-.284-.333-.468l-4.837-6.881c-.408-.58-.79-1.124-1.169-1.511-.434-.443-.977-.802-1.709-.819zm-1.216 3.56c.467-.604.73-.938.952-1.141.156-.142.198-.134.211-.131h.003c.017 0 .021.002.035.009.024.013.084.05.189.158.235.24.51.625.981 1.295l4.83 6.87c.266.378.533.759.791 1.031.284.3.75.677 1.415.638s1.086-.469 1.336-.801c.227-.301.451-.71.674-1.118l.996-1.818c1.481 2.357 3.184 6.086 3.184 10.097 0 6.11-4.748 11.062-10.606 11.062S5.395 24.759 5.395 18.65c0-6.637 3.297-12.086 5.616-15.088z" />
        </symbol>
        <symbol id="icon-swim" viewBox="0 0 32 32">
            <path
                d="M9.48 18.838c.177.162.764.469 1.72.469s1.543-.306 1.72-.469c.801-.735 1.725-1.123 2.673-1.123h.815c.948 0 1.872.389 2.673 1.123.177.162.764.469 1.72.469s1.543-.306 1.72-.469c.743-.682 1.594-1.051 2.469-1.102l-5.642-4.009.9-.64a.817.817 0 0 1 .631-.13l5.018 1.071c1.295.275 2.572-.546 2.85-1.835s-.548-2.559-1.844-2.835l-5.018-1.071a5.637 5.637 0 0 0-4.428.914l-4.001 2.844a5.574 5.574 0 0 0-1.336 1.34l-3.432 4.877c.274.161.541.345.793.576zm21.72 2.06h-.8c-1.302 0-2.29-.419-2.804-.89-.445-.408-.983-.701-1.588-.701h-.815c-.606 0-1.144.293-1.588.701-.514.472-1.502.89-2.804.89s-2.29-.419-2.804-.89c-.445-.408-.983-.701-1.588-.701h-.815c-.606 0-1.144.293-1.588.701-.514.472-1.502.89-2.804.89s-2.29-.419-2.804-.89c-.445-.408-.983-.701-1.589-.701h-.815c-.606 0-1.143.293-1.588.701-.514.472-1.502.89-2.804.89h-.8c-.442 0-.8.356-.8.796v1.592c0 .44.358.796.8.796h.8c1.931 0 3.636-.606 4.8-1.584 1.164.978 2.869 1.584 4.8 1.584s3.636-.606 4.8-1.584c1.164.978 2.869 1.584 4.8 1.584s3.636-.606 4.8-1.584c1.164.978 2.869 1.584 4.8 1.584h.8c.442 0 .8-.356.8-.796v-1.592a.798.798 0 0 0-.8-.796zM5.6 16.123c2.209 0 4-1.782 4-3.98s-1.791-3.98-4-3.98-4 1.782-4 3.98 1.791 3.98 4 3.98z" />
        </symbol>
    </defs>
</svg>