<svg xmlns="http://www.w3.org/2000/svg" aria-hidden="true" style="position:absolute;width:0;height:0;overflow:hidden">
    <defs>
        <symbol id="icon-flex" viewBox="0 0 32 32">
            <path
                d="M13.917 0h4.166c.511 0 .991 0 1.393.047.448.052.919.173 1.358.495s.7.74.891 1.157c.171.374.322.838.484 1.332l.578 1.768c.058.017.116.035.172.054 2.573.852 4.591 2.909 5.427 5.531.415 1.3.414 2.857.414 5.357v.517c0 2.501.001 4.057-.414 5.357-.836 2.623-2.854 4.679-5.427 5.531a4.907 4.907 0 0 1-.172.054l-.578 1.768c-.161.494-.313.958-.484 1.332-.19.416-.451.834-.891 1.156s-.91.443-1.358.495c-.402.047-.882.047-1.393.047h-4.166c-.511 0-.991 0-1.393-.047-.448-.052-.919-.172-1.358-.495s-.7-.74-.891-1.156c-.171-.374-.322-.838-.484-1.332L9.213 27.2a4.907 4.907 0 0 1-.172-.054c-2.573-.852-4.591-2.908-5.427-5.531-.414-1.3-.414-2.857-.414-5.358v-.517c0-2.501-.001-4.057.414-5.358.836-2.623 2.854-4.679 5.427-5.531.057-.019.114-.037.172-.054l.578-1.768c.162-.494.313-.958.484-1.332.19-.417.451-.834.891-1.157s.91-.443 1.358-.495c.402-.047.882-.047 1.393-.047zm-2.045 27.547.193.589c.186.568.295.896.4 1.127a1.066 1.066 0 0 0 .112.197l.002.001.002.001s.007.004.02.008c.028.009.086.025.198.038.248.029.588.031 1.176.031h4.052c.588 0 .927-.002 1.176-.031a.954.954 0 0 0 .218-.046l.002-.001.001-.001.004-.005.009-.012c.018-.024.05-.076.098-.18.105-.231.215-.559.4-1.127l.193-.589c-.7.023-1.496.023-2.425.023h-3.406c-.929 0-1.725 0-2.425-.023zm8.064-23.683.193.589c-.7-.023-1.496-.023-2.425-.022h-3.406c-.929 0-1.725 0-2.425.022l.193-.589c.186-.568.295-.896.4-1.127a1.066 1.066 0 0 1 .112-.197l.002-.001.002-.001s.007-.004.02-.008c.028-.009.086-.025.198-.038.248-.029.588-.031 1.176-.031h4.052c.588 0 .928.002 1.176.031a.954.954 0 0 1 .218.046l.002.001.002.001.014.017c.018.024.05.075.098.18.106.231.215.559.401 1.127zM16 10.196a1.22 1.22 0 0 1 1.208 1.231v3.692h2.415c.667 0 1.207.551 1.207 1.231s-.541 1.231-1.208 1.23H16a1.22 1.22 0 0 1-1.208-1.231v-4.923c0-.68.541-1.231 1.208-1.231z" />
        </symbol>
        <symbol id="icon-invest" viewBox="0 0 32 32">
            <path
                d="M20.512 1.6c2.02 0 3.648 0 4.928.172 1.329.179 2.449.561 3.338 1.45s1.271 2.008 1.45 3.338c.172 1.28.172 2.909.172 4.928v9.024c0 2.02 0 3.648-.172 4.928-.179 1.329-.561 2.449-1.45 3.338s-2.008 1.271-3.338 1.45c-1.28.172-2.908.172-4.928.172h-9.024c-2.02 0-3.648 0-4.928-.172-1.329-.179-2.449-.561-3.338-1.45s-1.271-2.008-1.45-3.338C1.6 24.16 1.6 22.532 1.6 20.512v-9.024c0-2.02 0-3.648.172-4.928.179-1.329.561-2.449 1.45-3.338S5.23 1.951 6.56 1.772C7.84 1.6 9.469 1.6 11.488 1.6h9.024zm6.055 9.511a1.201 1.201 0 0 0-1.934-1.421l-5.287 7.196c-.385.524-.642.872-.852 1.124s-.305.321-.339.342c-.41.248-.929.228-1.319-.05-.033-.023-.122-.1-.312-.367s-.42-.634-.763-1.186l-.02-.032c-.344-.552-.631-1.013-.885-1.368-.257-.36-.546-.711-.923-.972a3.601 3.601 0 0 0-4.096 0c-.377.261-.666.612-.923.972-.253.355-.541.816-.884 1.368l-2.649 4.249a1.199 1.199 0 1 0 2.037 1.269l2.629-4.217c.369-.592.617-.989.822-1.277.207-.29.302-.37.334-.391a1.2 1.2 0 0 1 1.365 0c.031.022.127.101.334.391.205.288.453.684.822 1.277l.02.032c.319.512.587.942.825 1.276.243.341.516.673.872.928a3.6 3.6 0 0 0 3.957.151c.374-.226.672-.536.94-.858.263-.315.563-.724.92-1.21l5.309-7.226z" />
        </symbol>
        <symbol id="icon-key" viewBox="0 0 32 32">
            <path
                d="M7.821 1.82c4.797-3.286 11.308-1.999 14.542 2.874 2.169 3.268 2.312 7.319.729 10.62-.061.128-.11.228-.15.315l-.016.035c.042.066.092.141.157.239l5.001 7.535c.247.37.513.769.634 1.24s.082.952.045 1.397l-.009.109-.254 3.16c-.029.365-.06.754-.131 1.075-.082.372-.256.85-.714 1.203s-.959.394-1.333.374c-.323-.017-.7-.092-1.054-.162l-2.395-.473a6.632 6.632 0 0 1-.721-.17c-.266-.085-.587-.231-.865-.531s-.4-.635-.468-.91a7.2 7.2 0 0 1-.122-.741l-.276-2.148a17.64 17.64 0 0 0-.031-.231 10.79 10.79 0 0 0-.212-.089l-1.305-.544a6.882 6.882 0 0 1-.63-.288c-.231-.127-.501-.318-.713-.637s-.284-.646-.314-.911c-.025-.222-.026-.477-.027-.701l-.007-1.262a20.2 20.2 0 0 0-.002-.276 17.21 17.21 0 0 0-.253-.099l-1.58-.609a5.242 5.242 0 0 0-.111-.042l-.012.001-.148.02a10.41 10.41 0 0 1-10.087-4.599C1.755 11.721 3.021 5.107 7.819 1.821zm3.57 5.38c-1.89 1.295-2.389 3.901-1.115 5.821s3.84 2.427 5.73 1.133c1.89-1.295 2.389-3.901 1.115-5.821s-3.84-2.427-5.73-1.133z" />
        </symbol>
        <symbol id="icon-partners" viewBox="0 0 32 32">
            <path
                d="M28.715 20.245C30.755 21.351 32 23.32 32 25.442v.478c0 .182 0 .344-.018.491-.154 1.249-1.266 2.236-2.675 2.373-.166.016-.349.016-.554.016H23.37c-.254 0-.38 0-.433-.072s-.059-.217.091-.418c1.812-2.432 1.139-6.824-.358-9.051-.147-.219-.18-.352-.125-.43s.187-.073.452-.063c1.781.069 4.139.623 5.718 1.479zM11.176 3.2c-3.25 0-6.148 2.289-6.148 5.409s2.897 5.409 6.148 5.409 6.148-2.289 6.148-5.409c0-3.12-2.897-5.409-6.148-5.409zM23.51 7.589c-2.73 0-5.205 1.927-5.205 4.6s2.475 4.6 5.205 4.6c2.729 0 5.205-1.927 5.205-4.6s-2.475-4.6-5.205-4.6zM18.245 17.1a13.793 13.793 0 0 0-14.138 0C1.556 18.628 0 21.346 0 24.276v.675c0 .264 0 .481.022.676.186 1.659 1.523 2.97 3.216 3.152.199.021.42.021.69.021h14.497c.269 0 .491 0 .69-.021 1.693-.182 3.03-1.492 3.216-3.152.022-.195.022-.412.022-.676v-.675c0-2.93-1.556-5.648-4.107-7.176z" />
        </symbol>
        <symbol id="icon-quality" viewBox="0 0 32 32">
            <path
                d="M5.694 4.726c.375-1.836 1.974-3.255 3.937-3.255h12.741c1.963 0 3.562 1.42 3.937 3.255H27.6c1.767 0 3.092 1.645 2.746 3.407l-.83 4.222a6.112 6.112 0 0 1-2.531 3.865l-2.188 1.499a6.08 6.08 0 0 1-3.459 4.759c-.291.135-.608.242-1.069.399l-.212.072-.19.064-2.666.904v3.911h3.6c.663 0 1.2.547 1.2 1.221s-.537 1.221-1.2 1.221h-9.6c-.663 0-1.2-.547-1.2-1.221s.537-1.221 1.2-1.221h3.6v-3.911l-3.068-1.04c-.461-.156-.778-.264-1.069-.399a6.08 6.08 0 0 1-3.459-4.759L5.017 16.22a6.112 6.112 0 0 1-2.531-3.865l-.83-4.222c-.347-1.763.979-3.407 2.746-3.407h1.291zm19.538 9.751.41-.281a3.666 3.666 0 0 0 1.519-2.319l.83-4.222a.406.406 0 0 0-.392-.487h-1.387l-.98 7.309zM5.789 7.168H4.402a.405.405 0 0 0-.392.487l.83 4.222c.186.946.732 1.78 1.519 2.319l.41.281-.98-7.309z" />
        </symbol>
        <symbol id="icon-simple" viewBox="0 0 32 32">
            <path
                d="M10.654 3.257c.749-2.395 4.573-2.014 5.989 0 1.252 1.781 1.108 4.291.735 6.448-.376 2.178 1.004 3.439 3.107 2.669 2.448-.896 5.436-1.828 7.387-1.134 2.246.798 2.999 3.165 2.246 7.983-1.497 9.58-5.989 11.177-11.977 11.177-5.564 0-7.511-1.512-9.238-2.975-.771-.654-1.242-1.606-1.242-2.608V14.288c0-.739.261-1.452.698-2.052.724-.996 1.817-2.656 2.296-4.189.412-1.318.219-2.153.046-2.903-.142-.613-.27-1.169-.046-1.887zM6.208 14.274V26.56a2.305 2.305 0 0 1-4.608 0V14.274a2.305 2.305 0 0 1 4.608 0z" />
        </symbol>
        <symbol id="icon-support" viewBox="0 0 32 32">
            <path
                d="M1.6 11.163c-.004 1.027.278 2.052.615 3.276l.049.177c2.033 7.397 7.349 12.145 10.544 14.433l.109.078c.973.698 1.776 1.274 3.083 1.273v-.033c1.307-.002 2.109-.581 3.081-1.283l.11-.079c3.189-2.297 8.501-7.056 10.54-14.422l.049-.176c.576-2.078.993-3.58.114-5.5-.881-1.922-2.605-2.712-5.021-3.819l-.883-.405a501.283 501.283 0 0 0-4.013-1.829l-.196-.088c-1.528-.687-2.595-1.167-3.779-1.167s-2.25.479-3.779 1.167l-.196.088a501.283 501.283 0 0 0-4.013 1.829l-.669.307c-1.289.591-2.367 1.086-3.201 1.634-.896.588-1.575 1.276-2.035 2.279-.368.801-.51 1.53-.508 2.259zm16.166 15.8c-.157.113-.296.213-.421.3V4.436c.408.161.927.391 1.635.709 1.368.614 2.565 1.164 3.994 1.82l.597.274c1.422.653 2.332 1.087 2.95 1.489.606.394.915.747 1.139 1.237.236.514.314.924.263 1.482-.053.575-.244 1.304-.564 2.46-1.817 6.562-6.596 10.898-9.594 13.058z" />
        </symbol>
        <symbol id="icon-tech" viewBox="0 0 32 32">
            <path
                d="M13.215 13.323a1.2 1.2 0 0 1 0 1.697l-1.883 1.883 3.766 3.766 1.883-1.883a1.2 1.2 0 1 1 1.697 1.697l-1.883 1.883.307.307a3.429 3.429 0 0 1 0 4.849 8.629 8.629 0 0 1-11.531.605l-1.916 1.916a1.2 1.2 0 1 1-1.697-1.697l1.916-1.916a8.63 8.63 0 0 1 .606-11.531 3.429 3.429 0 0 1 4.849 0l.307.307 1.883-1.883a1.2 1.2 0 0 1 1.697 0zM28.137 5.571l1.916-1.916a1.2 1.2 0 1 0-1.697-1.697L26.44 3.874a8.63 8.63 0 0 0-11.531.605 3.429 3.429 0 0 0 0 4.849l7.774 7.774a3.429 3.429 0 0 0 4.849 0 8.629 8.629 0 0 0 .605-11.531z" />
        </symbol>
        <symbol id="icon-bath" viewBox="0 0 32 32">
            <path
                d="M4.667 5.514a2.183 2.183 0 0 1 1.768-2.14 2.177 2.177 0 0 1 2.436 1.331l.192.477a5.454 5.454 0 0 0-1.84 2.365 5.572 5.572 0 0 0-.027 4.143.998.998 0 0 0 1.327.551L16.47 8.82a1 1 0 0 0 .536-1.284 5.286 5.286 0 0 0-2.842-2.95 5.129 5.129 0 0 0-3.288-.256l-.147-.367a4.18 4.18 0 0 0-8.062 1.552v9.153h-.333a.997.997 0 0 0-1 1 .997.997 0 0 0 1 1h.333v.473c0 .5 0 .793.021 1.12.189 2.983 1.8 5.736 4.136 7.536-.019.029-.036.06-.052.091l-1.333 2.667a.998.998 0 0 0 .452 1.334.998.998 0 0 0 1.338-.441l1.291-2.58a9.806 9.806 0 0 0 3.44 1.02c.327.033.525.04.864.053h.009c.987.037 1.952.06 2.835.06s1.848-.023 2.835-.06h.009c.339-.013.539-.02.864-.053a9.806 9.806 0 0 0 3.44-1.02l1.291 2.581a1.01 1.01 0 0 0 .578.501.997.997 0 0 0 1.313-1.019.985.985 0 0 0-.103-.376l-1.333-2.667a.912.912 0 0 0-.051-.091c2.335-1.8 3.947-4.555 4.136-7.536.02-.327.02-.62.02-1.12v-.051c0-.08 0-.164-.005-.24a2.27 2.27 0 0 0-.019-.183H29a.997.997 0 0 0 1-1 .997.997 0 0 0-1-1H4.667V5.514z" />
        </symbol>
        <symbol id="icon-bed" viewBox="0 0 32 32">
            <path
                d="M27 14.419A4.971 4.971 0 0 0 25 14H7a4.97 4.97 0 0 0-2 .418A5.013 5.013 0 0 0 2 19v7a.997.997 0 0 0 1 1 .997.997 0 0 0 1-1v-.5c.002-.132.055-.258.148-.352s.22-.147.352-.148h23c.132.002.258.055.352.148s.147.22.148.352v.5a.997.997 0 0 0 1 1 .997.997 0 0 0 1-1v-7a5.003 5.003 0 0 0-3-4.581zM23.5 5h-15A3.502 3.502 0 0 0 5 8.5V13c0 .039.009.077.026.112s.042.065.073.088a.254.254 0 0 0 .22.04A5.976 5.976 0 0 1 7 13h.264c.062 0 .121-.022.168-.063s.076-.098.082-.159A2.002 2.002 0 0 1 9.499 11h3.5a2.003 2.003 0 0 1 1.987 1.779c.007.061.036.118.082.159s.106.063.168.063h1.529c.062 0 .121-.022.168-.063s.076-.098.082-.159a1.997 1.997 0 0 1 1.984-1.778h3.5a2.003 2.003 0 0 1 1.987 1.779c.007.061.036.118.082.159s.106.063.168.063h.262c.569 0 1.135.081 1.681.241a.248.248 0 0 0 .319-.24v-4.5a3.503 3.503 0 0 0-3.5-3.5z" />
        </symbol>
        <symbol id="icon-chair" viewBox="0 0 32 32">
            <path
                d="M6.667 12.2V9.333c0-1.467 1.2-2.667 2.667-2.667h13.333c1.467 0 2.667 1.2 2.667 2.667v2.88c-1.547.547-2.667 2.013-2.667 3.747v2.707H9.334v-2.72c0-1.72-1.12-3.2-2.667-3.747zm20 1.133A2.675 2.675 0 0 0 24 16v4H8v-4a2.668 2.668 0 0 0-5.334 0v6.667c0 1.467 1.2 2.667 2.667 2.667v2.667H8v-2.667h16v2.667h2.667v-2.667c1.467 0 2.667-1.2 2.667-2.667V16c0-1.467-1.2-2.667-2.667-2.667z" />
        </symbol>
        <symbol id="icon-fire" viewBox="0 0 32 32">
            <path
                d="M21.712 20.433c0 2.91-2.557 5.269-5.712 5.269s-5.712-2.359-5.712-5.269c0-1.958 1.01-3.916 1.828-5.182.417-.644.625-.966 1.02-.997s.662.269 1.195.867a37.872 37.872 0 0 1 2.336 2.888c.371.51.556.765.792.771s.43-.231.816-.707l.764-.939c.254-.312.38-.468.591-.48s.338.111.591.357c.63.612 1.491 1.752 1.491 3.422z" />
            <path
                d="M12.226.001c-.711-.017-1.257.284-1.709.697-.384.351-.768.847-1.167 1.364l-.049.064C6.855 5.292 3.2 11.247 3.2 18.65c0 7.374 5.731 13.351 12.8 13.351s12.8-5.977 12.8-13.351c0-4.888-2.161-9.266-3.816-11.775l-.029-.043a5.315 5.315 0 0 0-.475-.648c-.217-.236-.603-.551-1.171-.526-.579.025-.941.388-1.132.637-.159.207-.307.478-.43.702l-1.193 2.179c-.109.199-.199.363-.28.504-.096-.131-.203-.284-.333-.468l-4.837-6.881c-.408-.58-.79-1.124-1.169-1.511-.434-.443-.977-.802-1.709-.819zm-1.216 3.56c.467-.604.73-.938.952-1.141.156-.142.198-.134.211-.131h.003c.017 0 .021.002.035.009.024.013.084.05.189.158.235.24.51.625.981 1.295l4.83 6.87c.266.378.533.759.791 1.031.284.3.75.677 1.415.638s1.086-.469 1.336-.801c.227-.301.451-.71.674-1.118l.996-1.818c1.481 2.357 3.184 6.086 3.184 10.097 0 6.11-4.748 11.062-10.606 11.062S5.395 24.759 5.395 18.65c0-6.637 3.297-12.086 5.616-15.088z" />
        </symbol>
        <symbol id="icon-swim" viewBox="0 0 32 32">
            <path
                d="M9.48 18.838c.177.162.764.469 1.72.469s1.543-.306 1.72-.469c.801-.735 1.725-1.123 2.673-1.123h.815c.948 0 1.872.389 2.673 1.123.177.162.764.469 1.72.469s1.543-.306 1.72-.469c.743-.682 1.594-1.051 2.469-1.102l-5.642-4.009.9-.64a.817.817 0 0 1 .631-.13l5.018 1.071c1.295.275 2.572-.546 2.85-1.835s-.548-2.559-1.844-2.835l-5.018-1.071a5.637 5.637 0 0 0-4.428.914l-4.001 2.844a5.574 5.574 0 0 0-1.336 1.34l-3.432 4.877c.274.161.541.345.793.576zm21.72 2.06h-.8c-1.302 0-2.29-.419-2.804-.89-.445-.408-.983-.701-1.588-.701h-.815c-.606 0-1.144.293-1.588.701-.514.472-1.502.89-2.804.89s-2.29-.419-2.804-.89c-.445-.408-.983-.701-1.588-.701h-.815c-.606 0-1.144.293-1.588.701-.514.472-1.502.89-2.804.89s-2.29-.419-2.804-.89c-.445-.408-.983-.701-1.589-.701h-.815c-.606 0-1.143.293-1.588.701-.514.472-1.502.89-2.804.89h-.8c-.442 0-.8.356-.8.796v1.592c0 .44.358.796.8.796h.8c1.931 0 3.636-.606 4.8-1.584 1.164.978 2.869 1.584 4.8 1.584s3.636-.606 4.8-1.584c1.164.978 2.869 1.584 4.8 1.584s3.636-.606 4.8-1.584c1.164.978 2.869 1.584 4.8 1.584h.8c.442 0 .8-.356.8-.796v-1.592a.798.798 0 0 0-.8-.796zM5.6 16.123c2.209 0 4-1.782 4-3.98s-1.791-3.98-4-3.98-4 1.782-4 3.98 1.791 3.98 4 3.98z" />
        </symbol>
        <symbol id="icon-search" viewBox="0 0 32 32">
            <path
                d="M25.73 27.602c.041.057.088.112.14.164l3.841 3.841a1.34 1.34 0 1 0 1.896-1.896l-3.841-3.841a1.43 1.43 0 0 0-.164-.14 15.582 15.582 0 0 0 3.685-10.086C31.287 7.004 24.283 0 15.643 0S-.001 7.004-.001 15.644s7.004 15.644 15.644 15.644c3.843 0 7.363-1.386 10.086-3.685zm2.876-11.958c0 7.159-5.803 12.962-12.962 12.962S2.682 22.803 2.682 15.644 8.485 2.682 15.644 2.682s12.962 5.803 12.962 12.962z" />
        </symbol>
        <symbol id="icon-arrow" viewBox="0 0 32 32">
            <path
                d="M6.869 10.869a1.6 1.6 0 0 1 2.263 0l6.869 6.869 6.869-6.869a1.6 1.6 0 1 1 2.263 2.263l-8 8a1.6 1.6 0 0 1-2.263 0l-8-8a1.6 1.6 0 0 1 0-2.263z" />
        </symbol>
        <symbol id="icon-inspect" viewBox="0 0 32 32">
            <path
                d="M15.941 1.6h.118c2.41 0 4.299 0 5.812.136 1.541.139 2.808.427 3.936 1.073a9.127 9.127 0 0 1 3.384 3.384c.647 1.128.934 2.395 1.073 3.936.136 1.513.136 3.402.136 5.812v.118c0 1.323 0 2.489-.023 3.522a7.978 7.978 0 1 0-10.798 10.796c-1.033.023-2.199.023-3.522.023h-.118c-2.41 0-4.299 0-5.812-.136-1.541-.139-2.808-.427-3.936-1.073a9.127 9.127 0 0 1-3.384-3.384c-.647-1.128-.934-2.395-1.073-3.936-.136-1.513-.136-3.402-.136-5.812v-.118c0-2.41 0-4.299.136-5.812.139-1.541.427-2.808 1.073-3.936a9.127 9.127 0 0 1 3.384-3.384c1.128-.647 2.395-.934 3.936-1.073C11.64 1.6 13.529 1.6 15.939 1.6zM6.864 9.644c0-.658.534-1.192 1.192-1.192h8.684a1.192 1.192 0 0 1 0 2.384H8.056a1.192 1.192 0 0 1-1.192-1.192zm1.192 3.212a1.192 1.192 0 0 0 0 2.384h4.282a1.192 1.192 0 0 0 0-2.384H8.056z" />
            <path
                d="M23.334 17.734a5.6 5.6 0 1 0 3.02 10.317l1.998 1.998a1.2 1.2 0 1 0 1.697-1.697l-1.998-1.998a5.6 5.6 0 0 0-4.717-8.62zm-3.2 5.6a3.2 3.2 0 1 1 6.4 0 3.2 3.2 0 0 1-6.4 0z" />
        </symbol>
        <symbol id="icon-pay" viewBox="0 0 32 32">
            <path
                d="M7.101 1.6h16.283a1.108 1.108 0 1 1 0 2.216H7.138c-.703 0-1.175.001-1.541.026-.356.024-.529.068-.643.115a1.846 1.846 0 0 0-.999.999c-.047.114-.091.287-.115.643a8.524 8.524 0 0 0-.018.433h14.465c2.366 0 4.241 0 5.724.175 1.523.18 2.776.558 3.823 1.417.355.292.681.617.972.973.859 1.047 1.237 2.3 1.417 3.823.175 1.483.175 3.358.175 5.724v.145c0 2.366 0 4.241-.175 5.724-.18 1.523-.558 2.776-1.417 3.823a7.03 7.03 0 0 1-.972.972c-1.047.859-2.301 1.237-3.823 1.417-1.483.175-3.358.175-5.724.175h-3.848c-2.714 0-4.864 0-6.546-.226-1.732-.233-3.133-.723-4.238-1.828s-1.596-2.507-1.829-4.238C1.6 22.425 1.6 20.276 1.6 17.561V7.102c0-.656 0-1.204.031-1.654.032-.468.101-.911.278-1.34A4.061 4.061 0 0 1 4.107 1.91c.429-.178.871-.247 1.34-.278.45-.031.998-.031 1.654-.031zM24 20.8a1.6 1.6 0 1 0 0-3.2 1.6 1.6 0 0 0 0 3.2z" />
        </symbol>
        <symbol id="icon-phone" viewBox="0 0 32 32">
            <path
                d="M6.594 2.125c1.295-.7 2.856-.7 4.151 0 .563.305 1.067.809 1.74 1.483l.118.118 1.476 1.476c.069.069.122.122.171.174a4.069 4.069 0 0 1 .532 4.839l-.008.015a8.637 8.637 0 0 0-.124.227 3.33 3.33 0 0 0 .235 3.442c.027.039.06.082.154.208l.157.209c.149.199.215.286.281.371a10.752 10.752 0 0 0 1.837 1.837c.085.066.172.132.371.281l.21.157c.125.094.169.126.208.154a3.33 3.33 0 0 0 3.442.235c.042-.022.09-.048.227-.124l.016-.009c.085-.047.151-.084.214-.116a4.065 4.065 0 0 1 4.798.819l1.476 1.476.118.118c.674.673 1.179 1.177 1.483 1.74.7 1.295.7 2.856 0 4.151-.305.563-.809 1.067-1.483 1.74l-.118.118-.104.104c-1.022 1.022-1.683 1.684-2.514 2.155-1.813 1.028-4.332 1.165-6.246.341-.876-.378-1.533-.905-2.54-1.714l-.092-.074c-2.053-1.648-4.465-3.722-6.798-6.055s-4.407-4.745-6.055-6.798l-.074-.092c-.809-1.007-1.336-1.664-1.714-2.54-.825-1.914-.687-4.433.341-6.246.471-.83 1.132-1.491 2.155-2.514l.104-.104.118-.118c.673-.674 1.177-1.179 1.74-1.483zM25.372 6.718c-1.024-1.024-2.428-1.834-3.913-1.927a1.22 1.22 0 0 0-.153 2.435c.727.046 1.603.48 2.341 1.218s1.172 1.614 1.218 2.341a1.22 1.22 0 1 0 2.435-.153c-.093-1.485-.903-2.889-1.927-3.913z" />
            <path
                d="M22.214 9.865c-.661-.661-1.608-1.173-2.657-1.173a1.22 1.22 0 1 0 0 2.44c.256 0 .614.14.932.459s.459.676.459.932a1.22 1.22 0 1 0 2.44 0c0-1.049-.512-1.997-1.173-2.657z" />
        </symbol>
        <symbol id="icon-vector" viewBox="0 0 13 32">
            <path
                d="M11.831 31.913c-.098.085-.264.081-.33-.046l-1.582-3.052c-.106-.205.161-.427.33-.25.563.587.98 1.233 1.273 1.966.838-3.146-1.034-6.169-3.119-8.444-2.025-2.209-4.206-4.171-5.718-6.795C.073 10.759-.839 5.056 1.127.111c.047-.12.243-.075.199.052C-.669 5.891.661 12.205 4.255 17.018c3.04 4.072 9.729 8.206 7.476 14.215a.234.234 0 0 1-.047.074l.06.115c.434-.421.745-.876.982-1.468.102-.254.519-.146.415.108-.309.755-.694 1.311-1.31 1.85z" />
        </symbol>
        <symbol id="icon-right" viewBox="0 0 32 32">
            <path
                d="M12.469 25.131a1.6 1.6 0 0 1 0-2.263l6.869-6.869-6.869-6.869a1.6 1.6 0 1 1 2.263-2.263l8 8a1.6 1.6 0 0 1 0 2.263l-8 8a1.6 1.6 0 0 1-2.263 0z" />
        </symbol>
        <symbol id="icon-star" viewBox="0 0 32 32">
            <path
                d="M15.277 1.677a3.45 3.45 0 0 1 1.445 0c1.06.228 1.744 1.064 2.281 1.947.543.893 1.115 2.15 1.817 3.693l.034.074c.474 1.041.587 1.232.727 1.357.055.048.114.092.176.129.161.096.376.145 1.506.277l.277.032c1.59.186 2.884.337 3.85.564.953.225 1.911.59 2.465 1.459.321.504.507 1.082.542 1.679.059 1.03-.503 1.893-1.142 2.639-.648.756-1.607 1.644-2.785 2.735l-.056.052c-.88.815-1.033.992-1.107 1.171a1.14 1.14 0 0 0-.076.28c-.028.192.014.423.357 1.576l.071.238c.546 1.84.989 3.332 1.176 4.483.184 1.134.197 2.34-.616 3.247-.205.229-.44.43-.698.597-1.02.66-2.201.453-3.282.087-1.098-.372-2.488-1.054-4.203-1.894l-.525-.257c-1.074-.526-1.289-.602-1.489-.604h-.027c-.2.003-.414.081-1.484.616l-.473.236c-1.732.866-3.136 1.568-4.244 1.953-1.091.379-2.284.596-3.315-.073a3.475 3.475 0 0 1-.665-.563c-.833-.907-.825-2.128-.642-3.275.186-1.165.631-2.679 1.18-4.546l.072-.245c.339-1.153.38-1.383.352-1.575a1.205 1.205 0 0 0-.076-.278c-.074-.179-.227-.356-1.106-1.17l-.056-.052c-1.18-1.093-2.14-1.982-2.789-2.739-.641-.747-1.203-1.611-1.142-2.643a3.509 3.509 0 0 1 .539-1.671c.553-.871 1.513-1.237 2.467-1.462.967-.228 2.263-.379 3.855-.565l.271-.032c1.13-.132 1.345-.181 1.506-.277.063-.037.122-.08.176-.129.14-.124.253-.315.727-1.357l.034-.074c.702-1.543 1.274-2.8 1.817-3.693.537-.883 1.222-1.719 2.281-1.947z" />
        </symbol>
        <symbol id="icon-facebook" viewBox="0 0 32 32">
            <path
                d="M29.333 16C29.333 8.64 23.36 2.667 16 2.667S2.667 8.64 2.667 16c0 6.453 4.587 11.827 10.667 13.067V20h-2.667v-4h2.667v-3.333A4.672 4.672 0 0 1 18.001 8h3.333v4h-2.667c-.733 0-1.333.6-1.333 1.333V16h4v4h-4v9.267c6.733-.667 12-6.347 12-13.267z" />
        </symbol>
        <symbol id="icon-instagram" viewBox="0 0 32 32">
            <path
                d="M7.748 1.799a5.952 5.952 0 0 0-5.952 5.95v15.872a5.954 5.954 0 0 0 5.952 5.952H23.62a5.953 5.953 0 0 0 5.949-5.952V7.749A5.954 5.954 0 0 0 23.62 1.8H7.748zm17.584 5.959a1.714 1.714 0 1 1-3.429 0 1.714 1.714 0 0 1 3.429 0zm-9.645 3.173a4.751 4.751 0 0 0-4.754 4.754 4.751 4.751 0 0 0 4.754 4.754 4.751 4.751 0 0 0 4.754-4.754 4.751 4.751 0 0 0-4.754-4.754zm-7.043 4.754a7.04 7.04 0 1 1 14.082 0 7.04 7.04 0 0 1-14.082 0z" />
        </symbol>
        <symbol id="icon-twitter" viewBox="0 0 32 32">
            <path
                d="M25.2 1.499h4.907l-10.72 12.283L32 30.5h-9.874l-7.739-10.137L5.541 30.5H.629l11.465-13.143L0 1.501h10.126l6.985 9.264L25.2 1.499zm-1.726 26.057h2.72L8.64 4.29H5.723l17.751 23.266z" />
        </symbol>

        <symbol id="icon-logo" viewBox="0 0 32 32">
            <path fill="#113033"
                d="M17.809 16.793c-3.563.288-7.792 2.299-10.876 2.499s-3.551-.058-4.32-.145c2.535 1.207 4.764.921 5.895.904s4.215-.703 5.716-.989c1.502-.288 3.176-.479 5.253-.373s4.888.713 6.998 1.022c2.11.309 3.509 0 3.509 0-1.066-.191-3.198-.852-3.704-1.055s-4.909-2.15-8.473-1.863l.001-.001z"
                style="fill:var(--color1, #113033)" />
            <path fill="#c1dadf"
                d="m9.827 7.944-6.599 7.023s-.025 3.316-.009 3.466c.04-.183.457-3.082.457-3.082L9.85 8.779l6.942 6.746 10.217 1.995v-.988l-10.401-2.044-6.782-6.543z"
                style="fill:var(--color2, #c1dadf)" />
            <path fill="#0f3037"
                d="m9.746 6.795-8.181 8.883-.015-.003v.001l1.669.25.008-.958 6.601-7.024 6.782 6.545 10.401 2.043 2.367.403-.675-.565-11.484-2.349-7.471-7.225z"
                style="fill:var(--color3, #0f3037)" />
            <path
                d="m9.747 6.795 7.471 7.225 11.484 2.349-2.07-1.758-2.35-.529 1.72 1.621-2.058-1.667-3.109-.674 1.376 1.515-1.708-1.546-3.181-.706 1.321 1.434L9.615 5.69.57 15.507l.982.168 8.196-8.88z"
                style="fill:var(--color4, #000)" />
            <path
                d="m9.746 6.795-8.196 8.88.015.003 8.181-8.883zM26.288 14.318l-2.236-1.768-1.894-.435 1.903 1.724 2.228.479zM23.692 13.775l-1.925-1.7-2.96-.695 1.818 1.729 3.068.667zM20.236 13.044l-1.829-1.713-3.193-.742 1.837 1.744 3.185.71zM16.885 9.563l1.632 1.541 2.918.671-1.849-1.501-2.701-.711zM13.093 8.61l1.825 1.684 3.233.767-1.728-1.565-3.331-.886zM16.122 9.193l-1.809-1.65-3.694-1.277 2.176 2.028 3.327.899zM19.626 10.035l-1.275-1.082-3.517-1.223 1.741 1.547 3.051.758zM21.435 11.424l.444.398 1.837.413-1.139-.902c-.746.175-1.142.091-1.142.091z"
                style="fill:var(--color4, #000)" />
            <path fill="#10323b"
                d="M27.182 9.586c.077-.064.157-.128.242-.191 0 0-1.241.35-2.234 1.635 0 0-.28-2.546.259-5.143.011-.358.116-.7.252-1.001.018-.06.035-.121.054-.181 0 0-1.534 1.709-1.413 7.362l.971.713s.041-1.469 1.515-2.882c.081-.1.204-.206.353-.311z"
                style="fill:var(--color5, #10323b)" />
            <path
                d="M27.891 10.885c-1.437-.026-1.625 1.006-1.625 1.006a7.966 7.966 0 0 1 2.434.059l-1.982.314s.425.612 1.491.58 1.776-.585 1.776-.585-.657-1.347-2.094-1.373zM29.557 7.109c-.799.048-2.842.088-3.496 2.315 0 0 2.711-.958 3.779-1.126-.388.159-1.887.739-2.659 1.287a6.169 6.169 0 0 0-.353.313c.003.01.086.305 1.208.326 1.111.021 2.18-.608 3.143-2.202.044-.074.085-.151.119-.23.041-.093.109-.228.177-.279.108-.08-1.119-.455-1.919-.408l.001.003z"
                style="fill:var(--color4, #000)" />
            <path fill="#266779" d="M26.829 9.897c.11-.105.226-.209.353-.313a1.818 1.818 0 0 0-.353.311v.001z"
                style="fill:var(--color6, #266779)" />
            <path
                d="M26.917 6.353c.908-.527 1.68-.664 1.68-.664-.691.306-1.376.919-1.376.919.075.053.233.083.368.098.158.019.32.011.474-.029 1.219-.315 1.474-1.579 1.474-1.579-.525-.171-.901-.136-.901-.136-1.829-.024-1.72 1.39-1.72 1.39l.001.001zM27.324 3.264s-.02-.771-.118-.997c0 0-1.26.208-2.169 1.197 0 0-.473.468-.522 1.293 0 0-.059.368.162.809 0 0 1.26-1.522 1.75-1.778 0 0-.438.453-.727 1.096-.099.331-.182.667-.252 1.001.013 0 1.661-.086 1.877-2.623v.001z"
                style="fill:var(--color4, #000)" />
            <path fill="#266779" d="M25.449 5.887c.07-.335.153-.67.252-1.001a2.69 2.69 0 0 0-.252 1.001z"
                style="fill:var(--color6, #266779)" />
            <path
                d="m25.628 1.461-.256.783s.921-.101.872-1.283c0 0-.011-.328-.035-.418 0 0-.522.051-.864.437s-.352.704-.159 1.173l.443-.693v.001zM23.079 5.247s-.357-2.597-.41-2.827c.066.211.913 2.541.913 2.541s.589-.856.509-1.522c-.081-.667-.043-1.46-1.785-3.022 0 0-.767.956-.794 2.36-.027 1.405.571 1.985 1.566 2.469l.001.001zM20.773 4.289l-.436-.809.635.751s.189-.54-.062-.899-.619-.519-1.095-.562c0 0-.288 1.416.958 1.52h.001zM22.767 7.987s-2.396-1.632-2.657-1.836c.238.106 3.528 1.695 3.528 1.695s-.307-3.439-5.119-2.891c0 0 .953 4.125 4.247 3.031l.001.001zM20.361 10.166s1.787 1.251 3.069-.283c0 0-1.795.002-1.847-.005l2.133-.399s-1.245-2.188-3.355.687z"
                style="fill:var(--color4, #000)" />
            <path fill="#0e2f38"
                d="M9.513 12.718H7.575v1.968h1.938v-1.968zM12.113 12.718h-1.938v1.968h1.938v-1.968zM12.113 15.349h-1.938v1.968h1.938v-1.968zM9.513 15.349H7.575v1.968h1.938v-1.968z"
                style="fill:var(--color7, #0e2f38)" />
            <path fill="#103138"
                d="M7.995 24.616c0-.404-.006-.508-.051-.704a4.03 4.03 0 0 0-.261-.774c-.178-.39-.655-.968-1.03-1.248a3.806 3.806 0 0 0-1.637-.686c-.233-.036-1.249-.051-2.554-.036-.564.006-.655.014-.692.045-.039.034-.04.183-.04 3.405v3.37l.059.045c.059.047.08.047 1.399.047 1.555 0 1.777-.017 2.307-.174 1.251-.368 2.175-1.342 2.447-2.587.043-.196.051-.3.051-.704l.001.001zm-1.6.84a2.13 2.13 0 0 1-.472.654 2.065 2.065 0 0 1-.934.522c-.201.054-.239.056-.988.068l-.778.009-.016-.738a105.28 105.28 0 0 1-.011-2.103l.006-1.365.775.009c.71.009.794.016.961.059.6.163 1.141.587 1.397 1.1.258.514.283 1.26.059 1.788v-.001zM20.965 27.754c.239.337.196.314.644.323.417.009.527-.011.598-.109.041-.054.043-.199.046-3.356 0-3.105 0-3.301-.039-3.359a.237.237 0 0 0-.094-.081 5.23 5.23 0 0 0-.591-.02h-.539l-.134.133.003 1.925v1.945c0 .02-.046-.043-.292-.393a740.11 740.11 0 0 1-2.134-2.957 9.101 9.101 0 0 0-.423-.559l-.089-.095-.5.003c-.273 0-.52.009-.548.02a.222.222 0 0 0-.085.076c-.037.051-.039.305-.039 3.362v3.309l.066.073.066.075.534.006c.577.009.67-.005.746-.101.048-.056.048-.075.048-2.034v-1.976l.133.191c.151.219.633.881 1.056 1.451.326.44 1.323 1.808 1.566 2.147v.003zM15.536 28.029c.076-.068.073-.113-.018-.337l-.388-.943a152.982 152.982 0 0 0-.823-1.998 139 139 0 0 1-.593-1.433 108.356 108.356 0 0 0-.858-2.083l-.034-.061h-1.183l-.037.065c-.018.039-.105.244-.19.458-.164.409-.837 2.046-1.207 2.941-.355.856-1.123 2.711-1.241 3.003-.123.303-.125.373-.006.415.037.014.315.02.703.017l.641-.006.062-.113a8.07 8.07 0 0 0 .215-.497c.085-.213.178-.432.207-.492l.052-.106 1.335-.003 1.376-.006c.054-.003.134.151.338.657.094.233.196.455.228.497l.059.076.658-.006c.598-.006.662-.011.703-.047l-.001.001zm-2.441-2.424c-.028.009-.445.014-.926.016h-.879l.016-.07c.006-.039.099-.275.199-.525a65.1 65.1 0 0 0 .397-.996c.215-.555.31-.786.32-.774l.102.233c.052.124.213.519.354.881.144.359.306.766.363.903.057.135.105.264.105.284s-.023.043-.051.05l-.001-.001zM28.549 24.335c-.128-.305-.452-1.101-.721-1.771l-.527-1.305-.037-.084h-1.173l-.071.151c-.039.086-.201.474-.358.864-.283.697-.391.957-.963 2.347-.157.379-.414 1.002-.571 1.389-.157.384-.4.968-.536 1.297-.139.329-.258.634-.262.679-.009.065 0 .093.041.131.051.045.068.048.693.048.479 0 .65-.006.675-.029.062-.05.105-.135.281-.559.094-.228.192-.463.219-.524l.048-.106h2.73l.068.151c.039.086.137.325.219.537.085.21.173.418.199.455l.046.075h.659c.639 0 .659-.003.721-.05.052-.04.059-.061.051-.133-.009-.075-.863-2.2-1.431-3.564zm-2.27 1.282c-.541-.006-.548-.006-.543-.054.003-.025.102-.295.224-.598.278-.699.286-.715.425-1.081.142-.373.25-.637.261-.628.005.005.099.235.21.514s.239.593.281.699c.041.106.156.387.253.625.1.236.181.447.181.465 0 .043-.522.068-1.289.056h-.003zM17.229 30.114a1.593 1.593 0 0 1-.358-.149c-.054-.045-.059-.061-.041-.113.065-.176.309-.205.591-.073l.169.079.029-.07a.482.482 0 0 1 .1-.135l.068-.064-.057-.048c-.139-.113-.448-.224-.616-.219a1.25 1.25 0 0 0-.205.029.572.572 0 0 0-.343.185.485.485 0 0 0-.137.368c0 .113.011.149.076.241.089.131.192.194.449.27.422.124.479.155.479.259 0 .124-.21.225-.392.19a.938.938 0 0 1-.333-.14c-.094-.059-.128-.07-.162-.054-.059.031-.185.179-.185.214 0 .017.037.064.08.101a1.06 1.06 0 0 0 1.078.155c.207-.098.347-.328.317-.522-.041-.255-.187-.377-.607-.51l-.003.004zM6.211 30.507l.059-.031a.583.583 0 0 0 .301-.469c0-.233-.167-.472-.4-.573-.102-.045-.159-.051-.559-.061-.358-.006-.454-.003-.488.023-.039.029-.04.084-.043.914-.003.485.005.892.014.901a.445.445 0 0 0 .164.027c.142.009.145.009.181-.059.028-.051.037-.135.037-.305v-.235l.087-.016a1.63 1.63 0 0 1 .176-.014h.091l.153.255c.235.39.258.407.527.363.068-.011.085-.025.085-.065 0-.027-.087-.188-.192-.352l-.192-.303h-.001zm-.511-.259h-.224v-.497h.213a1.6 1.6 0 0 1 .292.023c.111.031.159.09.173.213.025.203-.077.261-.454.261zM8.498 30.87c-.02-.006-.219-.014-.44-.014s-.411-.005-.415-.009a1.117 1.117 0 0 1-.003-.191l.009-.183.378-.005.381-.006.006-.135a.468.468 0 0 0-.016-.168c-.016-.025-.105-.034-.388-.043l-.367-.011v-.354h.443c.5 0 .471.011.471-.188s.029-.185-.598-.188c-.306-.003-.587.003-.627.006-.062.009-.076.02-.087.081-.016.09-.005 1.723.014 1.74.006.006.287.016.627.017l.614.006.04-.084c.034-.068.037-.099.016-.171-.011-.05-.039-.098-.059-.104l.003.001zM9.974 29.367c-.099 0-.164.011-.181.027-.023.029-.55 1.205-.707 1.582-.066.16-.077.203-.052.219a.784.784 0 0 0 .32.034c.028-.006.085-.09.142-.201l.099-.188.363-.016c.201-.009.369-.009.378-.003.006.006.054.09.105.188a.567.567 0 0 0 .148.201c.114.056.343.023.343-.051 0-.068-.703-1.681-.763-1.749-.029-.034-.066-.043-.194-.043l-.001-.001zm-.014 1.106c-.133 0-.239-.006-.239-.016 0-.04.235-.547.251-.537.009.005.065.12.121.255.059.135.107.259.107.273 0 .016-.077.025-.239.025H9.96zM12.665 30.88c-.018-.014-.199-.023-.4-.023s-.388-.006-.415-.014l-.051-.014-.006-.708c-.006-.603-.011-.713-.04-.732-.059-.039-.264-.027-.299.016-.046.051-.048 1.749-.002 1.794.023.023.171.031.593.036.67.009.655.014.655-.199-.003-.095-.011-.144-.034-.158h-.001zM15.23 30.857h-.42v-.384h.329c.182 0 .355-.009.388-.023.065-.023.073-.068.046-.228l-.014-.084-.372-.006a3.2 3.2 0 0 1-.388-.023.766.766 0 0 1 .003-.188l.016-.171.436-.005.436-.006.006-.165c.006-.158.005-.163-.052-.185-.076-.027-1.101-.027-1.169 0l-.052.02v.876c0 .513.009.889.023.909.018.029.111.034.614.034.404 0 .602-.009.619-.025a.368.368 0 0 0 .039-.149c.02-.196.016-.199-.486-.199l-.003.001zM19.931 29.39c-.032-.014-.34-.023-.705-.023-.55 0-.653.005-.682.034-.046.045-.066.163-.041.248.023.084.068.098.338.099l.207.003.014.241c.009.131.016.449.016.707 0 .393.005.474.034.497.037.029.301.039.329.011.006-.009.009-.339.005-.733l-.006-.718.552-.033v-.155c0-.146-.005-.158-.059-.179l-.003.001zM22.329 30.798a13.659 13.659 0 0 1-.287-.648c-.226-.539-.312-.722-.355-.756a.483.483 0 0 0-.185-.027c-.121 0-.153.009-.192.05a5.577 5.577 0 0 0-.267.57l-.329.761c-.111.255-.171.435-.148.458a.73.73 0 0 0 .181.017l.167.005.205-.388.366-.016c.224-.009.372-.006.386.006s.066.101.119.199l.094.176h.386l-.003-.07a1.718 1.718 0 0 0-.134-.339l-.003.001zm-.833-.325c-.145 0-.228-.009-.228-.025 0-.014.02-.07.043-.129l.108-.269c.037-.09.071-.165.077-.165s.059.12.121.266c.059.144.108.278.108.291 0 .023-.062.029-.228.029l-.001.001zM23.45 29.367c-.693 0-.696 0-.73.05-.041.056-.048.235-.014.289.016.025.082.036.286.04l.262.009v.693c0 .537.006.702.029.733.037.05.207.073.297.039l.062-.025V29.75h.204c.286 0 .338-.014.366-.098.039-.104.029-.191-.02-.241-.043-.043-.076-.045-.74-.045l-.001.001zM25.589 30.857h-.417v-.384l.383-.005.381-.006.006-.11c.014-.225.032-.214-.391-.221l-.369-.006-.006-.188-.006-.185h.888l.014-.07c.025-.124.016-.241-.023-.278-.029-.031-.111-.036-.564-.034a9.491 9.491 0 0 0-.61.017l-.08.014-.018.519c-.02.603-.014 1.263.014 1.291.02.02 1.241.02 1.262 0 .059-.056.046-.295-.018-.337a3.37 3.37 0 0 0-.445-.017h-.001z"
                style="fill:var(--color8, #103138)" />
        </symbol>
        <symbol id="icon-ok" viewBox="0 0 31 32">
            <path
                d="M25.952 6.954c.496.404.567 1.13.158 1.621L12.534 24.89a1.17 1.17 0 0 1-1.837-.051l-5.818-7.852c-.38-.513-.268-1.234.25-1.61s1.246-.265 1.626.248l4.933 6.658L24.312 7.112a1.172 1.172 0 0 1 1.638-.157z" />
        </symbol>

        <symbol id="icon-bus" viewBox="0 0 31 32">
            <path
                d="M23.415 14.699H7.805V8.195h15.61zm-1.951 7.805a1.953 1.953 0 0 1-1.38-3.332 1.95 1.95 0 0 1 3.331 1.38 1.95 1.95 0 0 1-1.951 1.952zm-11.708 0a1.953 1.953 0 0 1-1.38-3.332 1.95 1.95 0 0 1 3.331 1.38 1.95 1.95 0 0 1-1.951 1.952zm-4.552-1.301c0 1.145.507 2.172 1.301 2.888v2.315a1.301 1.301 0 0 0 1.301 1.301h1.301a1.301 1.301 0 0 0 1.301-1.301v-1.301h10.406v1.301a1.301 1.301 0 0 0 1.301 1.301h1.301a1.301 1.301 0 0 0 1.301-1.301v-2.315a3.882 3.882 0 0 0 1.301-2.888V8.195c0-4.553-4.657-5.203-10.407-5.203s-10.406.65-10.406 5.203v13.008z" />
        </symbol>
        <symbol id="icon-education" viewBox="0 0 31 32">
            <path d="M28.618 12.098 15.61 6.895 2.602 12.098l13.008 5.203 13.008-5.203zm0 0z" />
            <path stroke-linecap="round" stroke-linejoin="round" stroke-width="1.561"
                d="M28.618 12.098 15.61 6.895 2.602 12.098l13.008 5.203 13.008-5.203zm0 0v7.805" />
            <path
                d="M7.805 14.179v7.024c0 1.035.822 2.028 2.286 2.759s3.449 1.143 5.519 1.143 4.055-.411 5.519-1.143c1.464-.732 2.286-1.724 2.286-2.759v-7.024z" />
            <path stroke-linecap="round" stroke-linejoin="round" stroke-width="1.561"
                d="M7.805 14.179v7.024c0 1.035.822 2.028 2.286 2.759s3.449 1.143 5.519 1.143 4.055-.411 5.519-1.143c1.464-.732 2.286-1.724 2.286-2.759v-7.024" />
        </symbol>
        <symbol id="icon-hospital" viewBox="0 0 31 32">
            <path
                d="M6.504 2.992h13.008a2.602 2.602 0 0 1 2.602 2.602v20.813h1.301V12.748a.652.652 0 0 1 .651-.651h.65a2.602 2.602 0 0 1 2.602 2.602v12.878a1.432 1.432 0 0 1-1.431 1.431H5.334a1.432 1.432 0 0 1-1.431-1.431V5.593a2.602 2.602 0 0 1 2.602-2.602zm6.504 3.902a1.301 1.301 0 0 0-1.301 1.301v1.301h-1.301a1.301 1.301 0 1 0 0 2.602h1.301v1.301a1.301 1.301 0 1 0 2.602 0v-1.301h1.301a1.301 1.301 0 1 0 0-2.602h-1.301V8.195a1.301 1.301 0 0 0-1.301-1.301zm0 11.708a2.602 2.602 0 0 0-2.602 2.602v5.203h5.203v-5.203a2.602 2.602 0 0 0-2.602-2.602z" />
        </symbol>
        <symbol id="icon-park" viewBox="0 0 31 32">
            <path
                d="M28.429 26.035c0 .302-.11.563-.331.784s-.482.331-.784.331h-8.047c.012.197.046.706.105 1.524s.087 1.449.087 1.89c0 .29-.105.537-.314.74s-.459.305-.749.305h-5.574c-.29 0-.54-.102-.749-.305s-.314-.45-.314-.74c0-.441.029-1.071.087-1.89s.093-1.327.104-1.524H3.903c-.302 0-.563-.11-.784-.331s-.331-.482-.331-.784c0-.302.11-.563.331-.784l7.002-7.021H6.132c-.302 0-.563-.11-.784-.331s-.331-.482-.331-.784.11-.563.331-.784L12.35 9.31H8.919c-.302 0-.563-.11-.784-.331s-.331-.482-.331-.784.11-.563.331-.784l6.688-6.69c.221-.221.482-.331.784-.331s.563.11.784.331l6.688 6.69c.221.221.331.482.331.784s-.11.563-.331.784a1.07 1.07 0 0 1-.784.331h-3.431l7.002 7.021c.221.221.331.482.331.784s-.11.563-.331.784a1.07 1.07 0 0 1-.784.331h-3.989l7.002 7.021c.221.221.331.482.331.784z" />
        </symbol>
        <symbol id="icon-shopping" viewBox="0 0 31 32">
            <path
                d="M29.024 10.479a.972.972 0 0 0-.732-.333h-5.411l-6.54-7.472a.979.979 0 0 0-1.132-.244.97.97 0 0 0-.33.244l-6.54 7.472H2.928a.984.984 0 0 0-.734.333.972.972 0 0 0-.233.772l1.838 13.788a1.955 1.955 0 0 0 1.935 1.693H25.49a1.964 1.964 0 0 0 1.935-1.693l1.838-13.788a.985.985 0 0 0-.235-.772zM9.951 22.829a.817.817 0 0 1-.099 0 .975.975 0 0 1-.975-.878l-.683-6.829a.978.978 0 0 1 .873-1.068.978.978 0 0 1 1.068.873l.683 6.829a.98.98 0 0 1-.867 1.073zm6.634-.975a.976.976 0 0 1-1.952 0v-6.829a.976.976 0 0 1 1.952 0v6.829zm-5.654-11.708 4.679-5.348 4.679 5.348H10.93zm12.089 4.976-.683 6.829a.98.98 0 0 1-.97.879.817.817 0 0 1-.099 0 .968.968 0 0 1-.837-.689.99.99 0 0 1-.037-.379l.683-6.829a.974.974 0 0 1 1.726-.52c.164.2.241.458.215.715v-.005z" />
        </symbol>
        <symbol id="icon-walk" viewBox="0 0 31 32">
            <path
                d="M17.561 7.545c1.431 0 2.602-1.171 2.602-2.602s-1.171-2.602-2.602-2.602c-1.431 0-2.602 1.171-2.602 2.602s1.171 2.602 2.602 2.602zm-4.813 4.422-3.33 16.794c-.169.794.455 1.548 1.275 1.548h.104c.611 0 1.132-.416 1.275-1.015l2.107-9.392 2.732 2.602v6.504c0 .715.585 1.301 1.301 1.301s1.301-.585 1.301-1.301v-7.337c0-.715-.286-1.392-.806-1.886l-1.925-1.834.78-3.902a9.524 9.524 0 0 0 5.672 3.135c.78.117 1.483-.507 1.483-1.301 0-.637-.468-1.171-1.106-1.275-1.977-.325-3.616-1.496-4.488-3.031l-1.301-2.081a2.786 2.786 0 0 0-3.448-1.092l-4.982 2.107a2.612 2.612 0 0 0-1.587 2.407v3.083c0 .715.585 1.301 1.301 1.301s1.301-.585 1.301-1.301v-3.122l2.341-.911z" />
        </symbol>
        <symbol id="icon-logo-white" viewBox="0 0 32 32">
            <path
                d="M17.572 16.792c-3.556.287-7.776 2.294-10.853 2.494s-3.543-.057-4.311-.145c2.53 1.205 4.754.919 5.882.903s4.206-.702 5.704-.987c1.498-.287 3.17-.478 5.242-.372s4.877.712 6.983 1.02 3.502 0 3.502 0c-1.064-.191-3.191-.85-3.696-1.052s-4.899-2.146-8.455-1.859l.001-.001z" />
            <path
                d="M9.607 7.962 3.022 14.97s-.025 3.309-.009 3.459c.04-.182.456-3.076.456-3.076L9.63 8.795l6.927 6.732 10.196 1.991v-.986l-10.379-2.04-6.767-6.53z" />
            <path
                d="m9.526 6.814-8.163 8.864-.015-.002v.001l1.665.25.008-.956 6.587-7.009 6.767 6.531 10.379 2.038 2.362.402-.674-.564-11.459-2.344-7.455-7.21z" />
            <path
                d="m9.526 6.814 7.455 7.21 11.459 2.344-2.065-1.754-2.345-.528 1.717 1.618-2.054-1.664-3.103-.673 1.373 1.512-1.704-1.543-3.175-.704 1.318 1.43-9.009-8.351-9.025 9.796.98.167 8.178-8.861z" />
            <path
                d="m9.526 6.814-8.178 8.861.015.002 8.163-8.864zM26.032 14.321 23.8 12.557l-1.89-.434 1.898 1.72 2.223.478zM23.442 13.78l-1.921-1.696-2.954-.694 1.814 1.725 3.061.665zM19.993 13.051l-1.825-1.709-3.186-.74 1.833 1.74 3.178.709zM16.649 9.577l1.628 1.538 2.912.669-1.846-1.498-2.695-.709zM12.866 8.626l1.821 1.68 3.226.765-1.724-1.562-3.324-.884zM15.888 9.207l-1.805-1.646-3.686-1.274 2.171 2.023 3.32.898zM19.385 10.047l-1.272-1.08-3.509-1.221 1.737 1.544 3.045.756zM21.19 11.434l.443.397 1.833.412-1.136-.9c-.745.175-1.14.091-1.14.091zM26.924 9.599a7.25 7.25 0 0 1 .241-.191s-1.238.35-2.229 1.631c0 0-.279-2.54.259-5.132a2.66 2.66 0 0 1 .251-.999c.018-.06.035-.121.054-.181 0 0-1.531 1.705-1.41 7.346l.969.711s.04-1.465 1.512-2.876c.081-.1.203-.206.352-.311zM27.632 10.896C26.198 10.87 26.01 11.9 26.01 11.9a7.934 7.934 0 0 1 2.429.059l-1.978.313s.424.61 1.488.579 1.772-.584 1.772-.584-.655-1.344-2.089-1.371z" />
            <path
                d="M29.295 7.128c-.798.047-2.836.087-3.489 2.311 0 0 2.705-.956 3.77-1.123-.387.159-1.883.738-2.653 1.284a6.491 6.491 0 0 0-.352.312c.003.01.086.305 1.206.326 1.108.021 2.175-.607 3.137-2.197.044-.074.085-.151.119-.23.04-.092.109-.227.177-.278.107-.08-1.117-.454-1.915-.407l.001.003z" />
            <path
                d="M26.572 9.91c.11-.105.226-.208.352-.312a1.808 1.808 0 0 0-.352.311v.001zM26.661 6.374c.906-.526 1.676-.663 1.676-.663-.689.306-1.373.917-1.373.917.075.052.232.082.367.097.158.019.319.011.473-.029 1.217-.315 1.471-1.575 1.471-1.575-.524-.171-.899-.136-.899-.136-1.825-.024-1.717 1.387-1.717 1.387l.001.001zM27.067 3.291s-.02-.769-.117-.995c0 0-1.257.207-2.165 1.195 0 0-.472.467-.521 1.291 0 0-.059.367.162.808 0 0 1.257-1.519 1.746-1.774 0 0-.437.452-.726 1.093-.098.331-.182.665-.251.999.013 0 1.657-.086 1.873-2.618v.001z" />
            <path
                d="M25.195 5.908c.07-.335.153-.669.251-.999-.135.301-.24.642-.251.999zM25.374 1.492l-.255.781s.919-.101.87-1.281c0 0-.011-.327-.035-.417 0 0-.521.051-.862.436s-.351.703-.159 1.171l.442-.692v.001zM22.831 5.27s-.356-2.591-.409-2.821c.066.211.911 2.535.911 2.535s.588-.854.507-1.519c-.081-.665-.043-1.457-1.781-3.016 0 0-.765.954-.793 2.355-.026 1.402.569 1.981 1.563 2.464l.001.001zM20.529 4.314l-.436-.808.634.749s.188-.539-.062-.897-.617-.518-1.093-.56c0 0-.288 1.413.956 1.517h.001zM22.519 8.004s-2.391-1.629-2.651-1.832c.237.106 3.521 1.691 3.521 1.691s-.307-3.431-5.109-2.885c0 0 .951 4.117 4.238 3.025l.001.001zM20.118 10.178s1.784 1.248 3.062-.282c0 0-1.791.002-1.843-.005l2.128-.398s-1.242-2.183-3.348.685zM9.294 12.725H7.36v1.963h1.934v-1.963zM11.888 12.725H9.954v1.963h1.934v-1.963zM11.888 15.35H9.954v1.963h1.934V15.35zM9.294 15.35H7.36v1.963h1.934V15.35zM7.779 24.598c0-.403-.006-.507-.051-.703a4.111 4.111 0 0 0-.26-.773c-.178-.389-.654-.966-1.027-1.246a3.78 3.78 0 0 0-1.633-.684c-.232-.036-1.246-.051-2.549-.036-.563.006-.654.014-.691.045-.039.034-.04.182-.04 3.398v3.363l.059.045c.059.047.08.047 1.396.047 1.551 0 1.774-.018 2.302-.174 1.248-.367 2.17-1.339 2.441-2.581.043-.196.051-.3.051-.703l.001.001zm-1.597.838a2.107 2.107 0 0 1-.471.653c-.28.263-.553.417-.932.521-.201.054-.239.056-.986.067l-.776.009-.016-.736c-.009-.406-.014-1.351-.011-2.098l.006-1.362.774.009c.708.009.793.016.959.059.598.162 1.139.585 1.394 1.097.258.513.283 1.257.059 1.784v-.001zM20.721 27.729c.238.336.196.313.642.322.417.009.526-.011.597-.109.04-.054.043-.198.045-3.349 0-3.098 0-3.294-.039-3.351a.241.241 0 0 0-.093-.081 5.22 5.22 0 0 0-.59-.02h-.538l-.134.132.003 1.921v1.941c0 .02-.045-.043-.292-.392a1000.853 1000.853 0 0 1-2.129-2.951 9.098 9.098 0 0 0-.422-.558l-.088-.095-.499.003a4.45 4.45 0 0 0-.547.02.23.23 0 0 0-.085.076c-.037.051-.039.305-.039 3.355v3.302l.066.072.066.075.533.006c.576.009.669-.005.745-.101.048-.056.048-.075.048-2.03v-1.972l.133.191c.15.218.631.879 1.054 1.448.326.439 1.32 1.804 1.563 2.142v.003zM15.304 28.003c.076-.067.073-.112-.018-.336l-.387-.941a266.12 266.12 0 0 0-.821-1.994 137.52 137.52 0 0 1-.592-1.43 114.778 114.778 0 0 0-.856-2.078l-.034-.061h-1.18l-.037.065a12.73 12.73 0 0 0-.189.457c-.164.408-.836 2.042-1.204 2.935-.355.854-1.121 2.705-1.238 2.997-.122.302-.125.372-.006.414.037.014.314.02.702.018l.64-.006.062-.112c.034-.064.13-.286.215-.496.085-.212.178-.431.207-.491l.052-.106 1.332-.002c.733-.002 1.351-.005 1.373-.006.054-.002.134.151.337.655.093.232.196.454.227.496l.059.076.656-.006c.597-.006.66-.011.702-.047l-.001.001zm-2.437-2.419c-.028.009-.444.014-.924.016h-.877l.016-.07c.006-.039.098-.275.198-.524.102-.247.28-.695.396-.994.215-.554.309-.784.319-.773l.102.232c.052.124.212.518.353.879l.362.901c.057.135.105.263.105.283s-.023.042-.05.05l-.001-.001zM28.289 24.317c-.127-.305-.451-1.099-.719-1.767l-.526-1.302-.037-.084h-1.17l-.071.151c-.039.086-.201.473-.357.863-.283.695-.39.955-.961 2.342-.157.378-.413 1-.569 1.386-.157.383-.399.966-.535 1.294-.139.328-.258.633-.261.678-.009.065 0 .092.04.131.051.045.068.047.692.047.478 0 .649-.006.674-.029.062-.05.105-.135.28-.558a49.9 49.9 0 0 1 .218-.523l.048-.106h2.724l.068.151c.039.086.136.325.218.535.085.21.173.417.198.454l.045.075h.658c.637 0 .658-.003.72-.05.052-.04.059-.061.05-.132-.009-.075-.861-2.196-1.428-3.556zm-2.266 1.28c-.54-.006-.547-.006-.542-.054.003-.025.102-.295.224-.597.278-.698.285-.714.424-1.079.141-.372.25-.635.26-.627.005.005.098.235.21.513s.239.592.28.698c.04.106.155.386.253.624.1.236.181.446.181.464 0 .043-.521.067-1.286.056h-.003zM16.993 30.084a1.578 1.578 0 0 1-.357-.149c-.054-.045-.059-.061-.04-.112.064-.176.308-.205.589-.072l.169.079.029-.07a.482.482 0 0 1 .1-.135l.068-.064-.057-.047c-.139-.112-.447-.224-.615-.218a1.24 1.24 0 0 0-.204.029.566.566 0 0 0-.342.185.484.484 0 0 0-.136.367c0 .112.011.149.076.241.088.131.192.194.448.27.422.124.478.155.478.258 0 .124-.21.225-.391.19a.927.927 0 0 1-.332-.14c-.093-.059-.128-.07-.162-.054-.059.031-.184.178-.184.213 0 .017.037.064.08.101.28.243.742.308 1.076.155.207-.097.346-.327.317-.521-.04-.255-.187-.376-.606-.509l-.003.004zM5.998 30.476l.059-.031a.581.581 0 0 0 .3-.468c0-.232-.167-.471-.399-.572-.102-.045-.159-.051-.558-.061-.357-.006-.453-.003-.487.022-.039.029-.04.084-.043.912-.003.484.005.89.014.899a.469.469 0 0 0 .164.027c.141.009.145.009.181-.059.028-.051.037-.135.037-.304v-.235l.087-.016c.045-.006.125-.014.175-.014h.091l.153.255c.235.39.258.406.526.362.068-.011.085-.025.085-.065 0-.027-.087-.187-.192-.351l-.192-.302h-.001zm-.51-.258h-.223v-.496h.212c.114 0 .246.011.292.023.111.031.159.09.173.212.025.202-.077.261-.453.261zM8.28 30.838c-.02-.006-.218-.014-.439-.014s-.41-.005-.414-.009a1.112 1.112 0 0 1-.003-.191l.009-.182.377-.005.38-.006.006-.135a.459.459 0 0 0-.016-.167c-.016-.025-.105-.034-.388-.043l-.366-.011v-.353h.442c.499 0 .47.011.47-.187s.029-.185-.597-.187c-.305-.002-.586.002-.626.006-.062.009-.076.02-.087.081-.016.09-.005 1.719.014 1.736.006.006.287.016.626.018l.612.006.04-.084c.034-.067.037-.099.016-.171-.011-.05-.039-.097-.059-.104l.003.001zM9.753 29.339c-.098 0-.164.011-.181.027a49.264 49.264 0 0 0-.706 1.579c-.066.16-.077.202-.052.218a.778.778 0 0 0 .319.034c.028-.006.085-.09.141-.201l.098-.187.362-.016c.201-.009.369-.009.377-.003.006.006.054.09.105.187a.578.578 0 0 0 .148.201c.114.056.342.023.342-.051 0-.067-.702-1.678-.761-1.745-.029-.034-.066-.042-.193-.042l-.001-.001zm-.014 1.103c-.133 0-.239-.006-.239-.016 0-.04.235-.546.25-.536.009.005.064.12.121.255.059.135.107.258.107.272 0 .016-.077.025-.239.025h-.001zM12.438 30.848c-.018-.014-.198-.022-.399-.022s-.387-.006-.414-.014l-.05-.014-.006-.707c-.006-.602-.011-.711-.04-.73-.059-.039-.264-.027-.298.016-.045.051-.048 1.745-.003 1.79.023.023.17.031.592.036.669.009.654.014.654-.198-.002-.095-.011-.144-.034-.157h-.001zM14.998 30.826h-.419v-.383h.328c.182 0 .355-.009.387-.023.064-.022.073-.067.045-.227l-.014-.084-.371-.006a3.193 3.193 0 0 1-.387-.023.788.788 0 0 1 .002-.187l.016-.171.435-.005.435-.006.006-.165c.006-.157.005-.162-.052-.185-.076-.027-1.098-.027-1.166 0l-.052.02v.874c0 .512.009.888.023.908.018.029.111.034.612.034.403 0 .601-.009.617-.025a.368.368 0 0 0 .039-.149c.02-.196.016-.199-.485-.199l-.003.001zM19.689 29.362c-.032-.014-.34-.023-.703-.023-.549 0-.651.005-.68.034-.045.045-.066.162-.04.247.023.084.068.097.337.099l.207.003.014.241c.009.131.016.448.016.705 0 .392.005.473.034.496.037.029.3.039.328.011.006-.009.009-.338.005-.732l-.006-.716.55-.032v-.155c0-.146-.005-.157-.059-.178l-.002.001zM22.082 30.767a12.705 12.705 0 0 1-.286-.647c-.226-.538-.312-.72-.355-.754a.48.48 0 0 0-.184-.027c-.121 0-.153.009-.192.05a5.376 5.376 0 0 0-.266.569l-.328.759c-.111.255-.17.434-.148.457a.73.73 0 0 0 .181.017l.167.005.204-.387.365-.016c.223-.009.371-.006.385.006s.066.101.119.199l.093.176h.385l-.003-.07a1.631 1.631 0 0 0-.134-.338l-.003.001zm-.832-.325c-.145 0-.227-.009-.227-.025 0-.014.02-.07.043-.129s.073-.18.107-.268c.037-.09.071-.165.077-.165s.059.12.121.266c.059.144.107.277.107.291 0 .022-.062.029-.227.029l-.001.001zM23.201 29.339c-.692 0-.694 0-.728.05-.04.056-.048.235-.014.288.016.025.082.036.285.04l.261.009v.692c0 .535.006.7.029.731.037.05.207.072.297.039l.062-.025v-1.442h.203c.285 0 .337-.014.365-.097.039-.104.029-.191-.02-.241-.043-.042-.076-.045-.738-.045l-.001.001zM25.335 30.826h-.417v-.383l.382-.005.38-.006.006-.11c.014-.225.032-.213-.39-.221l-.369-.006-.006-.187-.006-.185h.886l.014-.07c.025-.124.016-.241-.023-.277-.029-.031-.111-.036-.563-.034a8.65 8.65 0 0 0-.608.017l-.08.014-.018.518c-.02.602-.014 1.261.014 1.288.02.02 1.238.02 1.26 0 .059-.056.045-.295-.018-.336a3.361 3.361 0 0 0-.444-.017h-.001z" />
        </symbol>
    </defs>
</svg>